<?xml version="1.0" encoding="UTF-8"?>
<svg id="Layer_1" data-name="Layer 1" xmlns="http://www.w3.org/2000/svg" viewBox="0 0 643.74 126.05">
  <defs>
    <style>
      .cls-1 {
        fill: #4285f4;
      }

      .cls-2 {
        fill: #34a853;
      }

      .cls-3 {
        fill: #fbbc04;
      }

      .cls-4 {
        fill: #ea4335;
      }

      .cls-5 {
        fill: #252529;
      }
    </style>
  </defs>
  <g>
    <path class="cls-5" d="M196.91,46.2c-5.27-5.36-11.75-8.08-19.31-8.08-3.96,0-7.68.75-11.07,2.21-3.4,1.47-6.44,3.78-9.02,6.83-5.32,5.72-8.02,12.72-8.02,20.82s2.66,14.93,7.91,20.71c5.34,6.01,12.13,9.06,20.21,9.06s14.15-2.73,19.31-8.12v6.42h12.2V10.53h-12.2v35.68h-.01ZM191.79,80.41c-3.4,3.4-7.6,5.13-12.48,5.13s-9.08-1.72-12.48-5.13c-3.4-3.4-5.13-7.6-5.13-12.49s1.73-9.08,5.13-12.48c3.4-3.4,7.6-5.13,12.48-5.13s9.08,1.72,12.48,5.13c3.4,3.4,5.13,7.6,5.13,12.48s-1.73,9.08-5.13,12.49Z"/>
    <path class="cls-5" d="M248.1,38.11c-8.04,0-15.08,2.97-20.94,8.82s-8.82,12.93-8.82,21.04,2.97,15.08,8.82,20.94c5.86,5.86,12.9,8.82,20.94,8.82,4.7,0,9.21-1.12,13.4-3.34,4.18-2.21,7.85-5.33,10.9-9.26l.46-.59-10.27-6.66-.39.48c-3.85,4.75-8.6,7.16-14.1,7.16-4.03,0-7.7-1.3-10.9-3.86-2.51-1.99-4.35-4.54-5.48-7.6h45.67l.42-3.62c.1-.9.16-1.73.16-2.48,0-8.1-2.97-15.18-8.82-21.04-5.86-5.86-12.93-8.82-21.04-8.82h0ZM231.7,61.88c1.08-3,2.93-5.61,5.49-7.73,3.27-2.54,6.94-3.83,10.91-3.83s7.83,1.28,10.91,3.83c2.52,1.96,4.39,4.56,5.57,7.73h-32.88Z"/>
    <polygon class="cls-5" points="310.42 77.98 295.32 40.35 295.14 39.92 282.03 39.92 304.54 96.04 316.4 96.04 339.11 39.92 325.9 39.92 310.42 77.98"/>
    <path class="cls-5" d="M372.84,50.32c5.44,0,10.19,2.38,14.11,7.07l.39.47,10.26-6.65-.46-.59c-3.06-3.91-6.72-7-10.9-9.19-4.19-2.19-8.7-3.31-13.4-3.31-8.04,0-15.08,2.97-20.94,8.82-5.86,5.86-8.82,12.93-8.82,21.04s2.97,15.08,8.82,20.94,12.9,8.82,20.94,8.82c4.7,0,9.15-1.05,13.24-3.14,4.08-2.07,7.6-4.99,10.46-8.66l.2-.25-.43-2-8.97-5.79-.39.46c-3.99,4.76-8.74,7.17-14.11,7.17-4.87,0-9.06-1.72-12.45-5.13-3.39-3.4-5.11-7.6-5.11-12.49s1.72-9.08,5.11-12.48c3.39-3.4,7.58-5.13,12.45-5.13v.02Z"/>
    <path class="cls-5" d="M434.96,38.11c-8.04,0-15.08,2.97-20.94,8.82-5.86,5.86-8.82,12.93-8.82,21.04s2.97,15.08,8.82,20.94,12.9,8.82,20.94,8.82,15.18-2.97,21.04-8.82,8.82-12.9,8.82-20.94-2.97-15.18-8.82-21.04c-5.86-5.86-12.93-8.82-21.04-8.82ZM447.5,80.41c-3.4,3.4-7.6,5.13-12.48,5.13s-9.08-1.72-12.49-5.13-5.13-7.6-5.13-12.49,1.73-9.08,5.13-12.48c3.4-3.4,7.61-5.13,12.49-5.13s9.08,1.72,12.48,5.13c3.4,3.4,5.13,7.6,5.13,12.48s-1.73,9.08-5.13,12.49Z"/>
    <rect class="cls-5" x="474.04" y="10.51" width="12.2" height="85.52"/>
    <path class="cls-5" d="M503.77,15.14c-2.17,0-4.04.78-5.57,2.31-1.52,1.53-2.29,3.41-2.29,5.6s.77,4.07,2.29,5.6c1.52,1.53,3.4,2.31,5.57,2.31s4.04-.78,5.56-2.31,2.29-3.41,2.29-5.6-.77-4.07-2.29-5.6c-1.52-1.53-3.39-2.31-5.56-2.31Z"/>
    <rect class="cls-5" x="497.67" y="39.92" width="12.2" height="56.11"/>
    <path class="cls-5" d="M552.86,38.11c-4.29,0-8.15.81-11.48,2.4-2.83,1.36-5.48,3.27-7.89,5.7V10.51h-12.2v85.52h12.2v-6.44c2.41,2.49,5.06,4.43,7.89,5.77,3.32,1.57,7.18,2.37,11.48,2.37,7.99,0,14.77-3.05,20.16-9.05,5.24-5.85,7.89-12.82,7.89-20.71s-2.69-14.96-7.99-20.81c-5.39-6.01-12.14-9.05-20.06-9.05h0ZM563.59,80.41c-3.4,3.4-7.6,5.13-12.49,5.13s-9.08-1.72-12.48-5.13c-3.4-3.4-5.13-7.6-5.13-12.49s1.73-9.08,5.13-12.48c3.4-3.4,7.6-5.13,12.48-5.13s9.08,1.72,12.49,5.13c3.4,3.4,5.13,7.6,5.13,12.48s-1.73,9.08-5.13,12.49Z"/>
    <path class="cls-5" d="M635.85,30.95c2.17,0,4.04-.78,5.56-2.31s2.29-3.41,2.29-5.6-.77-4.07-2.29-5.6c-1.52-1.53-3.39-2.31-5.56-2.31s-4.04.78-5.57,2.31c-1.52,1.53-2.29,3.41-2.29,5.6s.77,4.07,2.29,5.6c1.52,1.53,3.4,2.31,5.57,2.31Z"/>
    <rect class="cls-5" x="629.8" y="39.92" width="12.2" height="56.11"/>
    <path class="cls-5" d="M619.71,39.95c-.96-.06-1.93-.06-2.88,0-14.97.76-26.69,13.08-26.69,28.05v28.03h12.19v-27.97c0-8.79,7.17-15.94,15.97-15.94.88,0,1.81.1,2.91.3l.81.15v-12.34l-1.17-.15c-.38-.05-.76-.11-1.14-.13h0Z"/>
  </g>
  <g>
    <path class="cls-2" d="M54.28,77.18v48.02c-.09.01-.17.03-.26.04-3.47.5-7.01.78-10.53.78h-10.79v-48.84h21.58Z"/>
    <path class="cls-3" d="M93.43,43.1c-1.83,9.19-6.37,18.04-13.6,25.27-12.02,12.02-28.55,16.62-43.64,13.7-8.61-1.68-16.75-5.78-23.33-12.37C5.46,62.3,1.18,52.89.02,43.09h32.68c.37,3,1.27,5.91,2.76,8.59,1.01,1.86,2.31,3.6,3.88,5.16,3.39,3.41,7.6,5.53,12.04,6.39,7.79,1.51,16.34-.86,22.55-7.08,3.73-3.73,6.06-8.31,7.01-13.06h12.49Z"/>
    <path class="cls-1" d="M115.01,21.6v32.87c0,35.11-26.09,65.49-60.73,70.73v-21.93c22.55-4.98,39.15-25.38,39.15-48.8V21.6h21.58Z"/>
    <path class="cls-4" d="M115.01.02v21.58h-44.37c-9.02,0-16.36,7.34-16.36,16.36v5.14h-21.58v-5.14C32.7,17.02,49.73.02,70.64.02h44.37Z"/>
  </g>
</svg>