<?xml version="1.0" encoding="UTF-8"?>
<svg id="Layer_1" data-name="Layer 1" xmlns="http://www.w3.org/2000/svg" viewBox="0 0 284.91 312.08">
  <defs>
    <style>
      .cls-1 {
        fill: #4285f4;
      }

      .cls-2 {
        fill: #34a853;
      }

      .cls-3 {
        fill: #fbbc04;
      }

      .cls-4 {
        fill: #ea4335;
      }
    </style>
  </defs>
  <path class="cls-2" d="M134.59,191.01v118.75c-.22.02-.42.07-.64.1-8.58,1.24-17.34,1.93-26.04,1.93h-26.68v-120.78h53.37Z"/>
  <path class="cls-3" d="M231.42,106.73c-4.54,22.74-15.75,44.62-33.63,62.5-29.73,29.73-70.61,41.1-107.92,33.89-21.3-4.16-41.42-14.3-57.7-30.58C13.86,154.23,3.29,130.96.41,106.73h80.81c.91,7.42,3.15,14.62,6.83,21.24,2.51,4.59,5.71,8.91,9.61,12.76,8.38,8.43,18.79,13.66,29.78,15.8,19.27,3.74,40.4-2.14,55.78-17.51,9.23-9.23,15-20.55,17.35-32.29h30.85Z"/>
  <path class="cls-1" d="M284.78,53.56v81.29c0,86.83-64.52,161.96-150.19,174.92v-54.23c55.77-12.32,96.82-62.77,96.82-120.68V53.56h53.37Z"/>
  <path class="cls-4" d="M284.79.19v53.37h-109.74c-22.31,0-40.46,18.15-40.46,40.46v12.7h-53.37v-12.7C81.22,42.25,123.33.19,175.05.19h109.74Z"/>
</svg>